<svg width="41" height="41" viewBox="0 0 41 41" fill="none" xmlns="http://www.w3.org/2000/svg">
<g clip-path="url(#clip0)">
<path d="M7.15646 35.4798C6.98479 35.4798 6.81146 35.4448 6.64479 35.3698C5.00146 34.6315 3.93979 32.9931 3.93979 31.1965V12.0298C3.93979 9.50314 5.99479 7.44647 8.52312 7.44647H32.2731C32.9631 7.44647 33.5231 8.00647 33.5231 8.69647C33.5231 9.38647 32.9631 9.94647 32.2731 9.94647H8.52312C7.37479 9.94647 6.43979 10.8815 6.43979 12.0298V31.1965C6.43979 32.0115 6.92312 32.7548 7.66979 33.0898C8.29812 33.3731 8.57979 34.1131 8.29646 34.7431C8.08812 35.2048 7.63312 35.4798 7.15646 35.4798Z" fill="white"/>
<path d="M32.6898 35.7798H14.5231C13.8331 35.7798 13.2731 35.2198 13.2731 34.5298C13.2731 33.8398 13.8331 33.2798 14.5231 33.2798H32.6898C33.8381 33.2798 34.7731 32.3448 34.7731 31.1965V13.0298C34.7731 12.3398 35.3331 11.7798 36.0231 11.7798C36.7131 11.7798 37.2731 12.3398 37.2731 13.0298V31.1965C37.2731 33.7231 35.2164 35.7798 32.6898 35.7798Z" fill="white"/>
<path d="M36.0231 15.7798H34.5231C33.8331 15.7798 33.2731 15.2198 33.2731 14.5298C33.2731 13.8398 33.8331 13.2798 34.5231 13.2798H36.0231C36.7131 13.2798 37.2731 13.8398 37.2731 14.5298C37.2731 15.2198 36.7131 15.7798 36.0231 15.7798Z" fill="white"/>
<path d="M26.4398 15.7798H5.18979C4.49979 15.7798 3.93979 15.2198 3.93979 14.5298C3.93979 13.8398 4.49979 13.2798 5.18979 13.2798H26.4398C27.1298 13.2798 27.6898 13.8398 27.6898 14.5298C27.6898 15.2198 27.1298 15.7798 26.4398 15.7798Z" fill="white"/>
<path d="M1.85643 40.7798C1.53643 40.7798 1.21643 40.6581 0.973092 40.4131C0.484759 39.9248 0.484759 39.1331 0.973092 38.6448L38.4731 1.14478C38.9615 0.656451 39.7531 0.656451 40.2415 1.14478C40.7298 1.63312 40.7298 2.42478 40.2415 2.91312L2.74143 40.4131C2.49643 40.6581 2.17643 40.7798 1.85643 40.7798Z" fill="white"/>
</g>
<defs>
<clipPath id="clip0">
<rect width="40" height="40" fill="white" transform="translate(0.606445 0.779785)"/>
</clipPath>
</defs>
</svg>
