<svg width="41" height="41" viewBox="0 0 41 41" fill="none" xmlns="http://www.w3.org/2000/svg">
<g clip-path="url(#clip0)">
<path d="M6.85645 10.1187H22.4814V6.99365H6.85645V10.1187ZM18.7314 28.2437H34.3564V25.1187H18.7314V28.2437ZM35.9189 18.8687H17.1689C14.5843 18.8687 12.4814 20.9715 12.4814 23.5562V29.8062C12.4814 32.3908 14.5843 34.4937 17.1689 34.4937H32.2748L40.6064 40.7437V23.5562C40.6064 20.9715 38.5036 18.8687 35.9189 18.8687ZM37.4814 34.4819L33.3131 31.3687H17.1689C16.3074 31.3687 15.6064 30.6677 15.6064 29.8062V23.5562C15.6064 22.6946 16.3074 21.9937 17.1689 21.9937H35.9189C36.7805 21.9937 37.4814 22.6946 37.4814 23.5562V34.4819ZM28.7314 11.6812V5.43115C28.7314 2.84646 26.6286 0.743652 24.0439 0.743652H5.29395C2.70926 0.743652 0.606445 2.84646 0.606445 5.43115V24.8283L9.06613 16.3687H24.0439C26.6286 16.3687 28.7314 14.2658 28.7314 11.6812ZM7.77176 13.2437L3.73145 17.284V5.43115C3.73145 4.56959 4.43238 3.86865 5.29395 3.86865H24.0439C24.9055 3.86865 25.6064 4.56959 25.6064 5.43115V11.6812C25.6064 12.5427 24.9055 13.2437 24.0439 13.2437H7.77176Z" fill="url(#paint0_linear)"/>
</g>
<defs>
<linearGradient id="paint0_linear" x1="0.606445" y1="40.7436" x2="43.1316" y2="37.8497" gradientUnits="userSpaceOnUse">
<stop stop-color="#fff"/>
<stop offset="1" stop-color="#fff"/>
</linearGradient>
<clipPath id="clip0">
<rect width="40" height="40" fill="white" transform="translate(0.606445 0.743652)"/>
</clipPath>
</defs>
</svg>
