<svg width="49" height="49" viewBox="0 0 49 49" fill="none" xmlns="http://www.w3.org/2000/svg">
<g clip-path="url(#clip0)">
<path d="M46.0948 24.874C46.0948 26.374 45.2548 27.694 44.0348 28.374L33.6348 34.154L24.8348 24.874L33.6348 15.594L44.0348 21.374C45.2548 22.054 46.0948 23.374 46.0948 24.874Z" fill="#FFCF00"/>
<path d="M24.8348 24.874L3.23479 47.654C2.51479 46.934 2.09479 45.954 2.09479 44.874V4.87399C2.09479 3.79399 2.51479 2.81399 3.23479 2.09399L24.8348 24.874Z" fill="#00D6FF"/>
<path d="M24.8348 24.874L33.6348 34.154C7.28879 48.604 6.18479 50.768 3.23479 47.654L24.8348 24.874Z" fill="#FD2F3F"/>
<path d="M33.6348 15.5941L24.8348 24.8741L3.23479 2.09413C4.47079 0.788125 6.45279 0.502125 8.03479 1.37413L33.6348 15.5941Z" fill="#00F273"/>
</g>
<defs>
<clipPath id="clip0">
<rect width="48" height="48" fill="white" transform="translate(0.0947876 0.874023)"/>
</clipPath>
</defs>
</svg>
