<svg width="245" height="17" viewBox="0 0 245 17" fill="none" xmlns="http://www.w3.org/2000/svg">
<circle cx="8.99219" cy="8.45264" r="7" stroke="white" stroke-width="2"/>
<path d="M25.7309 8.95264C26.007 8.95264 26.2309 8.72878 26.2309 8.45264C26.2309 8.17649 26.007 7.95264 25.7309 7.95264L25.7309 8.95264ZM30.7643 7.95264C30.4882 7.95264 30.2643 8.17649 30.2643 8.45264C30.2643 8.72878 30.4882 8.95264 30.7643 8.95264L30.7643 7.95264ZM31.771 8.95264C32.0471 8.95264 32.271 8.72878 32.271 8.45264C32.271 8.17649 32.0471 7.95264 31.771 7.95264L31.771 8.95264ZM36.8044 7.95264C36.5283 7.95264 36.3044 8.1765 36.3044 8.45264C36.3044 8.72878 36.5283 8.95264 36.8044 8.95264L36.8044 7.95264ZM37.8111 8.95264C38.0872 8.95264 38.3111 8.72878 38.3111 8.45264C38.3111 8.1765 38.0872 7.95264 37.8111 7.95264L37.8111 8.95264ZM42.8445 7.95264C42.5684 7.95264 42.3445 8.1765 42.3445 8.45264C42.3445 8.72878 42.5684 8.95264 42.8445 8.95264L42.8445 7.95264ZM43.8512 8.95264C44.1274 8.95264 44.3512 8.72878 44.3512 8.45264C44.3512 8.1765 44.1274 7.95264 43.8512 7.95264L43.8512 8.95264ZM48.8846 7.95264C48.6085 7.95264 48.3846 8.1765 48.3846 8.45264C48.3846 8.72878 48.6085 8.95264 48.8846 8.95264L48.8846 7.95264ZM49.8913 8.95264C50.1675 8.95264 50.3913 8.72878 50.3913 8.45264C50.3913 8.1765 50.1675 7.95264 49.8913 7.95264L49.8913 8.95264ZM54.9248 7.95264C54.6486 7.95264 54.4248 8.1765 54.4248 8.45264C54.4248 8.72878 54.6486 8.95264 54.9248 8.95264L54.9248 7.95264ZM55.9314 8.95264C56.2076 8.95264 56.4314 8.72878 56.4314 8.45264C56.4314 8.1765 56.2076 7.95264 55.9314 7.95264L55.9314 8.95264ZM60.9649 7.95264C60.6887 7.95264 60.4649 8.1765 60.4649 8.45264C60.4649 8.72878 60.6887 8.95264 60.9649 8.95264L60.9649 7.95264ZM61.9716 8.95264C62.2477 8.95264 62.4716 8.72878 62.4716 8.45264C62.4716 8.1765 62.2477 7.95264 61.9716 7.95264L61.9716 8.95264ZM67.005 7.95264C66.7288 7.95264 66.505 8.1765 66.505 8.45264C66.505 8.72878 66.7288 8.95264 67.005 8.95264L67.005 7.95264ZM68.0117 8.95264C68.2878 8.95264 68.5117 8.72878 68.5117 8.45264C68.5117 8.1765 68.2878 7.95264 68.0117 7.95264L68.0117 8.95264ZM73.0451 7.95264C72.769 7.95264 72.5451 8.1765 72.5451 8.45264C72.5451 8.72878 72.769 8.95264 73.0451 8.95264L73.0451 7.95264ZM74.0518 8.95264C74.3279 8.95264 74.5518 8.72878 74.5518 8.45264C74.5518 8.1765 74.3279 7.95264 74.0518 7.95264L74.0518 8.95264ZM79.0852 7.95264C78.8091 7.95264 78.5852 8.1765 78.5852 8.45264C78.5852 8.72878 78.8091 8.95264 79.0852 8.95264L79.0852 7.95264ZM80.0919 8.95264C80.368 8.95264 80.5919 8.72878 80.5919 8.45264C80.5919 8.1765 80.368 7.95264 80.0919 7.95264L80.0919 8.95264ZM85.1253 7.95264C84.8492 7.95264 84.6253 8.1765 84.6253 8.45264C84.6253 8.72878 84.8492 8.95264 85.1253 8.95264L85.1253 7.95264ZM86.132 8.95264C86.4082 8.95264 86.632 8.72878 86.632 8.45264C86.632 8.1765 86.4082 7.95264 86.132 7.95264L86.132 8.95264ZM91.1654 7.95264C90.8893 7.95264 90.6654 8.1765 90.6654 8.45264C90.6654 8.72878 90.8893 8.95264 91.1654 8.95264L91.1654 7.95264ZM92.1721 8.95264C92.4483 8.95264 92.6721 8.72879 92.6721 8.45264C92.6721 8.1765 92.4483 7.95264 92.1721 7.95264L92.1721 8.95264ZM97.2056 7.95264C96.9294 7.95264 96.7056 8.1765 96.7056 8.45264C96.7056 8.72879 96.9294 8.95264 97.2056 8.95264L97.2056 7.95264ZM98.2122 8.95264C98.4884 8.95264 98.7122 8.72879 98.7122 8.45264C98.7122 8.1765 98.4884 7.95264 98.2122 7.95264L98.2122 8.95264ZM103.246 7.95264C102.97 7.95264 102.746 8.1765 102.746 8.45264C102.746 8.72879 102.97 8.95264 103.246 8.95264L103.246 7.95264ZM104.252 8.95264C104.528 8.95264 104.752 8.72879 104.752 8.45264C104.752 8.1765 104.528 7.95264 104.252 7.95264L104.252 8.95264ZM109.286 7.95264C109.01 7.95264 108.786 8.1765 108.786 8.45264C108.786 8.72879 109.01 8.95264 109.286 8.95264L109.286 7.95264ZM110.292 8.95264C110.569 8.95264 110.792 8.72879 110.792 8.45264C110.792 8.1765 110.569 7.95264 110.292 7.95264L110.292 8.95264ZM115.326 7.95264C115.05 7.95264 114.826 8.1765 114.826 8.45264C114.826 8.72879 115.05 8.95264 115.326 8.95264L115.326 7.95264ZM116.333 8.95264C116.609 8.95264 116.833 8.72879 116.833 8.45264C116.833 8.1765 116.609 7.95264 116.333 7.95264L116.333 8.95264ZM121.366 7.95265C121.09 7.95265 120.866 8.1765 120.866 8.45265C120.866 8.72879 121.09 8.95265 121.366 8.95265L121.366 7.95265ZM122.373 8.95265C122.649 8.95265 122.873 8.72879 122.873 8.45265C122.873 8.1765 122.649 7.95265 122.373 7.95265L122.373 8.95265ZM127.406 7.95265C127.13 7.95265 126.906 8.1765 126.906 8.45265C126.906 8.72879 127.13 8.95265 127.406 8.95265L127.406 7.95265ZM128.413 8.95265C128.689 8.95265 128.913 8.72879 128.913 8.45265C128.913 8.1765 128.689 7.95265 128.413 7.95265L128.413 8.95265ZM133.446 7.95265C133.17 7.95265 132.946 8.1765 132.946 8.45265C132.946 8.72879 133.17 8.95265 133.446 8.95265L133.446 7.95265ZM134.453 8.95265C134.729 8.95265 134.953 8.72879 134.953 8.45265C134.953 8.1765 134.729 7.95265 134.453 7.95265L134.453 8.95265ZM139.486 7.95265C139.21 7.95265 138.986 8.1765 138.986 8.45265C138.986 8.72879 139.21 8.95265 139.486 8.95265L139.486 7.95265ZM140.493 8.95265C140.769 8.95265 140.993 8.72879 140.993 8.45265C140.993 8.1765 140.769 7.95265 140.493 7.95265L140.493 8.95265ZM145.526 7.95265C145.25 7.95265 145.026 8.1765 145.026 8.45265C145.026 8.72879 145.25 8.95265 145.526 8.95265L145.526 7.95265ZM146.533 8.95265C146.809 8.95265 147.033 8.72879 147.033 8.45265C147.033 8.1765 146.809 7.95265 146.533 7.95265L146.533 8.95265ZM151.567 7.95265C151.29 7.95265 151.067 8.17651 151.067 8.45265C151.067 8.72879 151.29 8.95265 151.567 8.95265L151.567 7.95265ZM152.573 8.95265C152.849 8.95265 153.073 8.72879 153.073 8.45265C153.073 8.17651 152.849 7.95265 152.573 7.95265L152.573 8.95265ZM157.607 7.95265C157.33 7.95265 157.107 8.17651 157.107 8.45265C157.107 8.72879 157.33 8.95265 157.607 8.95265L157.607 7.95265ZM158.613 8.95265C158.889 8.95265 159.113 8.72879 159.113 8.45265C159.113 8.17651 158.889 7.95265 158.613 7.95265L158.613 8.95265ZM163.647 7.95265C163.371 7.95265 163.147 8.17651 163.147 8.45265C163.147 8.72879 163.371 8.95265 163.647 8.95265L163.647 7.95265ZM164.653 8.95265C164.93 8.95265 165.153 8.72879 165.153 8.45265C165.153 8.17651 164.93 7.95265 164.653 7.95265L164.653 8.95265ZM169.687 7.95265C169.411 7.95265 169.187 8.17651 169.187 8.45265C169.187 8.72879 169.411 8.95265 169.687 8.95265L169.687 7.95265ZM170.694 8.95265C170.97 8.95265 171.194 8.72879 171.194 8.45265C171.194 8.17651 170.97 7.95265 170.694 7.95265L170.694 8.95265ZM175.727 7.95265C175.451 7.95265 175.227 8.17651 175.227 8.45265C175.227 8.72879 175.451 8.95265 175.727 8.95265L175.727 7.95265ZM176.734 8.95265C177.01 8.95265 177.234 8.72879 177.234 8.45265C177.234 8.17651 177.01 7.95265 176.734 7.95265L176.734 8.95265ZM181.767 7.95265C181.491 7.95265 181.267 8.17651 181.267 8.45265C181.267 8.72879 181.491 8.95265 181.767 8.95265L181.767 7.95265ZM182.774 8.95265C183.05 8.95265 183.274 8.72879 183.274 8.45265C183.274 8.17651 183.05 7.95265 182.774 7.95265L182.774 8.95265ZM187.807 7.95265C187.531 7.95265 187.307 8.17651 187.307 8.45265C187.307 8.72879 187.531 8.95265 187.807 8.95265L187.807 7.95265ZM188.814 8.95265C189.09 8.95265 189.314 8.72879 189.314 8.45265C189.314 8.17651 189.09 7.95265 188.814 7.95265L188.814 8.95265ZM193.847 7.95265C193.571 7.95265 193.347 8.17651 193.347 8.45265C193.347 8.72879 193.571 8.95265 193.847 8.95265L193.847 7.95265ZM194.854 8.95265C195.13 8.95265 195.354 8.72879 195.354 8.45265C195.354 8.17651 195.13 7.95265 194.854 7.95265L194.854 8.95265ZM199.887 7.95265C199.611 7.95265 199.387 8.17651 199.387 8.45265C199.387 8.72879 199.611 8.95265 199.887 8.95265L199.887 7.95265ZM200.894 8.95265C201.17 8.95265 201.394 8.72879 201.394 8.45265C201.394 8.17651 201.17 7.95265 200.894 7.95265L200.894 8.95265ZM205.928 7.95265C205.651 7.95265 205.428 8.17651 205.428 8.45265C205.428 8.72879 205.651 8.95265 205.928 8.95265L205.928 7.95265ZM206.934 8.95265C207.21 8.95265 207.434 8.7288 207.434 8.45265C207.434 8.17651 207.21 7.95265 206.934 7.95265L206.934 8.95265ZM211.968 7.95265C211.692 7.95265 211.468 8.17651 211.468 8.45265C211.468 8.7288 211.692 8.95265 211.968 8.95265L211.968 7.95265ZM212.974 8.95265C213.251 8.95265 213.474 8.7288 213.474 8.45265C213.474 8.17651 213.251 7.95265 212.974 7.95265L212.974 8.95265ZM218.008 7.95265C217.732 7.95265 217.508 8.17651 217.508 8.45265C217.508 8.7288 217.732 8.95265 218.008 8.95265L218.008 7.95265ZM219.014 8.95265C219.291 8.95265 219.514 8.7288 219.514 8.45265C219.514 8.17651 219.291 7.95265 219.014 7.95265L219.014 8.95265ZM224.048 7.95265C223.772 7.95265 223.548 8.17651 223.548 8.45265C223.548 8.7288 223.772 8.95265 224.048 8.95265L224.048 7.95265ZM25.2275 8.95264L25.7309 8.95264L25.7309 7.95264L25.2275 7.95264L25.2275 8.95264ZM30.7643 8.95264L31.771 8.95264L31.771 7.95264L30.7643 7.95264L30.7643 8.95264ZM36.8044 8.95264L37.8111 8.95264L37.8111 7.95264L36.8044 7.95264L36.8044 8.95264ZM42.8445 8.95264L43.8512 8.95264L43.8512 7.95264L42.8445 7.95264L42.8445 8.95264ZM48.8846 8.95264L49.8913 8.95264L49.8913 7.95264L48.8846 7.95264L48.8846 8.95264ZM54.9248 8.95264L55.9314 8.95264L55.9314 7.95264L54.9248 7.95264L54.9248 8.95264ZM60.9649 8.95264L61.9716 8.95264L61.9716 7.95264L60.9649 7.95264L60.9649 8.95264ZM67.005 8.95264L68.0117 8.95264L68.0117 7.95264L67.005 7.95264L67.005 8.95264ZM73.0451 8.95264L74.0518 8.95264L74.0518 7.95264L73.0451 7.95264L73.0451 8.95264ZM79.0852 8.95264L80.0919 8.95264L80.0919 7.95264L79.0852 7.95264L79.0852 8.95264ZM85.1253 8.95264L86.132 8.95264L86.132 7.95264L85.1253 7.95264L85.1253 8.95264ZM91.1654 8.95264L92.1721 8.95264L92.1721 7.95264L91.1654 7.95264L91.1654 8.95264ZM97.2056 8.95264L98.2122 8.95264L98.2122 7.95264L97.2056 7.95264L97.2056 8.95264ZM103.246 8.95264L104.252 8.95264L104.252 7.95264L103.246 7.95264L103.246 8.95264ZM109.286 8.95264L110.292 8.95264L110.292 7.95264L109.286 7.95264L109.286 8.95264ZM115.326 8.95264L116.333 8.95264L116.333 7.95264L115.326 7.95264L115.326 8.95264ZM121.366 8.95265L122.373 8.95265L122.373 7.95265L121.366 7.95265L121.366 8.95265ZM127.406 8.95265L128.413 8.95265L128.413 7.95265L127.406 7.95265L127.406 8.95265ZM133.446 8.95265L134.453 8.95265L134.453 7.95265L133.446 7.95265L133.446 8.95265ZM139.486 8.95265L140.493 8.95265L140.493 7.95265L139.486 7.95265L139.486 8.95265ZM145.526 8.95265L146.533 8.95265L146.533 7.95265L145.526 7.95265L145.526 8.95265ZM151.567 8.95265L152.573 8.95265L152.573 7.95265L151.567 7.95265L151.567 8.95265ZM157.607 8.95265L158.613 8.95265L158.613 7.95265L157.607 7.95265L157.607 8.95265ZM163.647 8.95265L164.653 8.95265L164.653 7.95265L163.647 7.95265L163.647 8.95265ZM169.687 8.95265L170.694 8.95265L170.694 7.95265L169.687 7.95265L169.687 8.95265ZM175.727 8.95265L176.734 8.95265L176.734 7.95265L175.727 7.95265L175.727 8.95265ZM181.767 8.95265L182.774 8.95265L182.774 7.95265L181.767 7.95265L181.767 8.95265ZM187.807 8.95265L188.814 8.95265L188.814 7.95265L187.807 7.95265L187.807 8.95265ZM193.847 8.95265L194.854 8.95265L194.854 7.95265L193.847 7.95265L193.847 8.95265ZM199.887 8.95265L200.894 8.95265L200.894 7.95265L199.887 7.95265L199.887 8.95265ZM205.928 8.95265L206.934 8.95265L206.934 7.95265L205.928 7.95265L205.928 8.95265ZM211.968 8.95265L212.974 8.95265L212.974 7.95265L211.968 7.95265L211.968 8.95265ZM218.008 8.95265L219.014 8.95265L219.014 7.95265L218.008 7.95265L218.008 8.95265ZM224.048 8.95265L224.551 8.95265L224.551 7.95265L224.048 7.95265L224.048 8.95265Z" fill="white" fill-opacity="0.75"/>
<g clip-path="url(#clip0)">
<path d="M242.393 7.33833L235.728 2.77513C235.42 2.56425 235.11 2.45264 234.852 2.45264C234.354 2.45264 234.045 2.85265 234.045 3.52221V13.3846C234.045 14.0534 234.353 14.4526 234.85 14.4526C235.109 14.4526 235.414 14.3409 235.722 14.1295L242.391 9.56636C242.82 9.27242 243.057 8.87688 243.057 8.4521C243.057 8.02761 242.823 7.63217 242.393 7.33833Z" fill="white"/>
</g>
<defs>
<clipPath id="clip0">
<rect width="12" height="12" fill="white" transform="translate(232.551 2.45264)"/>
</clipPath>
</defs>
</svg>
