<svg width="41" height="41" viewBox="0 0 41 41" fill="none" xmlns="http://www.w3.org/2000/svg">
<g clip-path="url(#clip0)">
<path d="M20.6065 3.16553C9.57846 3.16553 0.606506 12.1024 0.606506 23.0874V27.7749C0.606506 30.6045 2.62276 32.9719 5.29401 33.5164V33.6343C5.29401 36.219 7.39682 38.3218 9.98151 38.3218C12.5662 38.3218 14.669 36.219 14.669 33.6343V21.9155C14.669 19.3308 12.5662 17.228 9.98151 17.228C7.39682 17.228 5.29401 19.3308 5.29401 21.9155V22.0334C4.42854 22.2098 3.6319 22.5777 2.95026 23.0906V23.0874C2.95026 13.3947 10.8708 5.50928 20.6065 5.50928C30.3422 5.50928 38.2628 13.3947 38.2628 23.0874V23.0906C37.5811 22.5777 36.7845 22.2098 35.919 22.0334V21.9155C35.919 19.3308 33.8162 17.228 31.2315 17.228C28.6468 17.228 26.544 19.3308 26.544 21.9155V33.6343C26.544 36.219 28.6468 38.3218 31.2315 38.3218C33.8162 38.3218 35.919 36.219 35.919 33.6343V33.5164C38.5903 32.972 40.6065 30.6046 40.6065 27.7749V23.0874C40.6065 12.1024 31.6346 3.16553 20.6065 3.16553ZM9.98151 19.5718C11.2739 19.5718 12.3253 20.6232 12.3253 21.9155V33.6343C12.3253 34.9266 11.2739 35.978 9.98151 35.978C8.68916 35.978 7.63776 34.9266 7.63776 33.6343V21.9155C7.63776 20.6232 8.68916 19.5718 9.98151 19.5718ZM5.29401 24.4601V31.0897C3.92987 30.606 2.95026 29.3027 2.95026 27.7748C2.95026 26.2469 3.92987 24.9437 5.29401 24.4601ZM31.2315 35.978C29.9392 35.978 28.8878 34.9266 28.8878 33.6343V21.9155C28.8878 20.6232 29.9392 19.5718 31.2315 19.5718C32.5238 19.5718 33.5753 20.6232 33.5753 21.9155V33.6343C33.5753 34.9266 32.5238 35.978 31.2315 35.978ZM35.919 31.0897V24.4601C37.2831 24.9437 38.2628 26.247 38.2628 27.7749C38.2628 29.3028 37.2831 30.6061 35.919 31.0897Z" fill="white"/>
</g>
<defs>
<linearGradient id="paint0_linear" x1="0.606445" y1="40.7436" x2="43.1316" y2="37.8497" gradientUnits="userSpaceOnUse">
<stop stop-color="#FE2C55"/>
<stop offset="1" stop-color="#25F4EE"/>
</linearGradient>
<clipPath id="clip0">
<rect width="40" height="40" fill="white" transform="translate(0.606506 0.743652)"/>
</clipPath>
</defs>
</svg>
