<svg width="41" height="41" viewBox="0 0 41 41" fill="none" xmlns="http://www.w3.org/2000/svg">
<g clip-path="url(#clip0)">
<path d="M31.8564 40.7798H9.35645C7.28978 40.7798 5.60645 39.0981 5.60645 37.0298V19.5298C5.60645 17.4615 7.28978 15.7798 9.35645 15.7798H31.8564C33.9231 15.7798 35.6064 17.4615 35.6064 19.5298V37.0298C35.6064 39.0981 33.9231 40.7798 31.8564 40.7798ZM9.35645 18.2798C8.66811 18.2798 8.10645 18.8398 8.10645 19.5298V37.0298C8.10645 37.7198 8.66811 38.2798 9.35645 38.2798H31.8564C32.5448 38.2798 33.1064 37.7198 33.1064 37.0298V19.5298C33.1064 18.8398 32.5448 18.2798 31.8564 18.2798H9.35645Z" fill="white"/>
<path d="M29.3564 18.2798C28.6664 18.2798 28.1064 17.7198 28.1064 17.0298V10.7798C28.1064 6.64478 24.7414 3.27979 20.6064 3.27979C16.4714 3.27979 13.1064 6.64478 13.1064 10.7798V17.0298C13.1064 17.7198 12.5464 18.2798 11.8564 18.2798C11.1664 18.2798 10.6064 17.7198 10.6064 17.0298V10.7798C10.6064 5.26478 15.0914 0.779785 20.6064 0.779785C26.1214 0.779785 30.6064 5.26478 30.6064 10.7798V17.0298C30.6064 17.7198 30.0464 18.2798 29.3564 18.2798Z" fill="white"/>
<path d="M20.6065 29.1131C18.7681 29.1131 17.2731 27.6181 17.2731 25.7798C17.2731 23.9414 18.7681 22.4464 20.6065 22.4464C22.4448 22.4464 23.9398 23.9414 23.9398 25.7798C23.9398 27.6181 22.4448 29.1131 20.6065 29.1131ZM20.6065 24.9464C20.1481 24.9464 19.7731 25.3198 19.7731 25.7798C19.7731 26.2398 20.1481 26.6131 20.6065 26.6131C21.0648 26.6131 21.4398 26.2398 21.4398 25.7798C21.4398 25.3198 21.0648 24.9464 20.6065 24.9464Z" fill="white"/>
<path d="M20.6064 34.1131C19.9164 34.1131 19.3564 33.5531 19.3564 32.8631V28.2798C19.3564 27.5898 19.9164 27.0298 20.6064 27.0298C21.2964 27.0298 21.8564 27.5898 21.8564 28.2798V32.8631C21.8564 33.5531 21.2964 34.1131 20.6064 34.1131Z" fill="white"/>
</g>
<defs>
<clipPath id="clip0">
<rect width="40" height="40" fill="white" transform="translate(0.606445 0.779785)"/>
</clipPath>
</defs>
</svg>
