<svg width="25" height="25" viewBox="0 0 25 25" fill="none" xmlns="http://www.w3.org/2000/svg">
<g clip-path="url(#clip0)">
<path d="M24.3315 11.6162C24.3312 11.6159 24.331 11.6156 24.3306 11.6153L19.432 6.74031C19.065 6.37511 18.4714 6.37647 18.1061 6.7435C17.7409 7.11048 17.7423 7.70406 18.1093 8.06931L21.3982 11.3423H1.54395C1.02616 11.3423 0.606445 11.762 0.606445 12.2798C0.606445 12.7976 1.02616 13.2173 1.54395 13.2173H21.3982L18.1093 16.4903C17.7424 16.8555 17.7409 17.4491 18.1062 17.8161C18.4715 18.1832 19.0651 18.1845 19.4321 17.8193L24.3307 12.9443C24.331 12.944 24.3312 12.9437 24.3315 12.9434C24.6987 12.5769 24.6975 11.9814 24.3315 11.6162Z" fill="white"/>
</g>
<defs>
<clipPath id="clip0">
<rect width="24" height="24" fill="white" transform="translate(0.606445 0.279785)"/>
</clipPath>
</defs>
</svg>
