<svg width="33" height="33" viewBox="0 0 33 33" fill="none" xmlns="http://www.w3.org/2000/svg">
<path fill-rule="evenodd" clip-rule="evenodd" d="M2.51953 6.24805C2.51953 5.85023 2.67757 5.46869 2.95887 5.18739C3.24017 4.90609 3.62171 4.74805 4.01953 4.74805H29.0195C29.4173 4.74805 29.7989 4.90609 30.0801 5.18739C30.3615 5.46869 30.5195 5.85023 30.5195 6.24805C30.5195 6.64587 30.3615 7.02741 30.0801 7.30871C29.7989 7.59001 29.4173 7.74805 29.0195 7.74805H4.01953C3.62171 7.74805 3.24017 7.59001 2.95887 7.30871C2.67757 7.02741 2.51953 6.64587 2.51953 6.24805ZM2.51953 16.248C2.51953 15.8502 2.67757 15.4687 2.95887 15.1874C3.24017 14.9061 3.62171 14.748 4.01953 14.748H29.0195C29.4173 14.748 29.7989 14.9061 30.0801 15.1874C30.3615 15.4687 30.5195 15.8502 30.5195 16.248C30.5195 16.6459 30.3615 17.0274 30.0801 17.3087C29.7989 17.59 29.4173 17.748 29.0195 17.748H4.01953C3.62171 17.748 3.24017 17.59 2.95887 17.3087C2.67757 17.0274 2.51953 16.6459 2.51953 16.248ZM4.01953 24.748C3.62171 24.748 3.24017 24.906 2.95887 25.1874C2.67757 25.4686 2.51953 25.8502 2.51953 26.248C2.51953 26.6458 2.67757 27.0274 2.95887 27.3086C3.24017 27.59 3.62171 27.748 4.01953 27.748H29.0195C29.4173 27.748 29.7989 27.59 30.0801 27.3086C30.3615 27.0274 30.5195 26.6458 30.5195 26.248C30.5195 25.8502 30.3615 25.4686 30.0801 25.1874C29.7989 24.906 29.4173 24.748 29.0195 24.748H4.01953Z" fill="url(#paint0_linear)"/>
<defs>
<linearGradient id="paint0_linear" x1="2.51953" y1="27.748" x2="32.2211" y2="25.2874" gradientUnits="userSpaceOnUse">
<stop stop-color="#FE2C55"/>
<stop offset="1" stop-color="#25F4EE"/>
</linearGradient>
</defs>
</svg>
